<?xml version="1.0" standalone="no"?>
<!DOCTYPE svg PUBLIC "-//W3C//DTD SVG 20010904//EN"
 "http://www.w3.org/TR/2001/REC-SVG-20010904/DTD/svg10.dtd">
<svg version="1.0" xmlns="http://www.w3.org/2000/svg"
 width="600.000000pt" height="600.000000pt" viewBox="0 0 600.000000 600.000000"
 preserveAspectRatio="xMidYMid meet">
<metadata>
Created by potrace 1.14, written by Peter Selinger 2001-2017
</metadata>
<g transform="translate(0.000000,600.000000) scale(0.100000,-0.100000)"
fill="#000000" stroke="none">
<path d="M2798 5996 c-1 -2 -37 -6 -78 -10 -77 -7 -118 -12 -180 -22 -19 -4
-48 -8 -65 -11 -16 -2 -79 -15 -140 -29 -60 -14 -119 -27 -129 -29 -81 -18
-348 -118 -481 -180 -89 -42 -283 -146 -310 -167 -5 -5 -48 -33 -95 -64 -226
-150 -501 -401 -650 -594 -19 -25 -39 -50 -45 -56 -5 -6 -16 -20 -23 -30 -7
-11 -35 -50 -63 -89 -27 -38 -64 -94 -82 -124 -18 -29 -41 -67 -51 -85 -38
-62 -146 -279 -146 -292 0 -8 -4 -14 -10 -14 -5 0 -10 -7 -10 -15 0 -8 -11
-38 -24 -67 -30 -66 -109 -315 -135 -428 -32 -138 -56 -280 -69 -420 -9 -97
-8 -464 1 -560 7 -71 10 -95 22 -165 3 -16 8 -48 11 -70 20 -133 106 -438 161
-570 13 -33 30 -73 36 -90 21 -54 143 -288 192 -370 168 -278 438 -590 665
-765 24 -19 51 -41 58 -48 7 -6 44 -33 80 -59 37 -26 69 -51 70 -55 2 -5 7 -8
12 -8 5 0 36 -18 70 -41 115 -76 325 -184 490 -252 159 -66 427 -143 595 -171
55 -10 172 -26 241 -33 139 -15 567 -7 674 12 14 2 66 11 115 19 50 8 99 17
110 20 11 2 52 12 90 21 39 9 79 18 91 21 50 9 293 98 411 149 155 67 420 214
497 275 6 5 52 40 103 77 118 88 184 145 308 268 98 97 244 265 295 340 14 20
30 42 37 49 6 7 30 42 52 77 22 35 44 69 49 74 20 26 196 355 202 380 3 14 15
44 35 90 17 40 73 196 81 225 55 207 73 282 78 315 4 23 9 52 11 65 12 61 20
121 35 260 8 79 5 491 -4 550 -3 19 -8 55 -11 80 -62 510 -270 1018 -582 1429
-36 46 -68 88 -74 95 -66 80 -102 118 -206 222 -140 140 -292 265 -443 364
-58 38 -110 73 -116 77 -34 25 -382 202 -409 208 -5 1 -23 8 -40 14 -182 76
-468 150 -695 181 -41 6 -88 13 -105 16 -33 6 -501 15 -507 10z"/>
</g>
</svg>
